<?xml version="1.0" encoding="UTF-8" standalone="no"?>
<!-- Created with Inkscape (http://www.inkscape.org/) -->

<svg
   width="128"
   height="128"
   viewBox="0 0 128 128"
   version="1.1"
   id="svg1"
   xmlns="http://www.w3.org/2000/svg"
   xmlns:svg="http://www.w3.org/2000/svg">
  <defs
     id="defs1">
    <filter
       style="color-interpolation-filters:sRGB;"
       id="filter5"
       x="-0.088085899"
       y="-0.32569131"
       width="1.1761718"
       height="1.6513826">
      <feGaussianBlur
         stdDeviation="3.43645 9.35486"
         result="blur"
         id="feGaussianBlur5" />
    </filter>
  </defs>
  <g
     id="layer1">
    <rect
       style="font-weight:bold;font-size:85.2338px;font-family:Comfortaa;-inkscape-font-specification:'Comfortaa Bold';fill:#9d53a4;fill-opacity:1;stroke:none;stroke-width:1.00157;stroke-linecap:round;paint-order:markers stroke fill"
       id="rect1"
       x="0"
       y="0"
       width="128"
       height="128" />
    <path
       id="rect2"
       style="font-weight:bold;font-size:85.2338px;font-family:Comfortaa;-inkscape-font-specification:'Comfortaa Bold';opacity:0.3;fill:#000000;fill-opacity:1;stroke:none;stroke-width:0.683651;stroke-linecap:round;paint-order:markers stroke fill"
       d="M 126.19954,8.5046065 2.3387337,35.856456 v 8.702861 L 126.19954,17.207467 Z m 0,19.1156805 -123.8608063,27.35185 v 8.702861 L 126.19954,36.323148 Z m 0,19.11568 -123.8608063,27.35185 v 8.702861 L 126.19954,55.438828 Z m 0,19.11568 -123.8608063,27.35185 v 8.702863 L 126.19954,74.554506 Z m 0,19.115677 L 2.3387337,112.31917 v 8.70287 L 126.19954,93.670187 Z" />
    <path
       d="M 47.770414,95.581586 V 67.240016 L 63.20672,66.054797 v 30.687094 c 0,1.628818 -0.334911,3.055328 -1.004732,4.279509 -0.608928,1.2195 -1.613649,2.33909 -3.014185,3.35877 -1.765888,1.3735 -4.049368,2.62385 -6.85043,3.75107 -2.801071,1.19236 -5.997938,1.92647 -9.590608,2.20232 -5.297674,0.40676 -9.834182,-0.18964 -13.609524,-1.7892 -3.775351,-1.59956 -6.667759,-4.17906 -8.677221,-7.7385 -2.009454,-3.624588 -3.014185,-8.173314 -3.014185,-13.646165 0,-5.733465 1.035173,-10.53655 3.10553,-14.409236 2.070357,-3.937838 4.871418,-6.954492 8.403195,-9.04995 3.59267,-2.165286 7.581145,-3.416245 11.965424,-3.752875 2.13124,-0.163639 3.988474,-0.07821 5.571681,0.256302 1.583208,0.334519 2.892407,0.755218 3.927581,1.262113 v 13.486678 c -0.791599,-0.59075 -1.826782,-1.130216 -3.10553,-1.618409 -1.217855,-0.492868 -2.618391,-0.678521 -4.201598,-0.55696 -2.070357,0.158964 -3.866687,0.752956 -5.389001,1.781978 -1.461429,1.024357 -2.587948,2.479068 -3.379547,4.364131 -0.791608,1.885064 -1.187412,4.228387 -1.187412,7.029971 0,4.104643 0.82205,7.071136 2.466151,8.899491 1.704994,1.823676 4.049369,2.620978 7.033111,2.391884 1.096077,-0.08416 2.100808,-0.291612 3.014195,-0.622357 0.913386,-0.395895 1.613658,-0.742845 2.100799,-1.04087 z M 63.20672,69.182143 47.679077,70.374373 V 39.32592 C 47.134761,31.876418 63.20672,29.643023 63.20672,38.241633 Z"
       id="path1"
       style="font-weight:bold;font-size:85.2338px;font-family:Comfortaa;-inkscape-font-specification:'Comfortaa Bold';fill:#000000;fill-opacity:1;stroke-width:0.777826" />
    <path
       d="M 47.770414,91.581586 V 63.240016 L 63.20672,62.054797 v 30.687094 c 0,1.628818 -0.334911,3.055328 -1.004732,4.279507 -0.608928,1.219507 -1.613649,2.339094 -3.014185,3.358772 -1.765888,1.3735 -4.049368,2.62385 -6.85043,3.75107 -2.801071,1.19236 -5.997938,1.92647 -9.590608,2.20232 -5.297674,0.40676 -9.834182,-0.18964 -13.609524,-1.7892 -3.775351,-1.59956 -6.667759,-4.17906 -8.677221,-7.738498 -2.009454,-3.62459 -3.014185,-8.173316 -3.014185,-13.646167 0,-5.733465 1.035173,-10.53655 3.10553,-14.409236 2.070357,-3.937838 4.871418,-6.954492 8.403195,-9.04995 3.59267,-2.165286 7.581145,-3.416245 11.965424,-3.752875 2.13124,-0.163639 3.988474,-0.07821 5.571681,0.256302 1.583208,0.334519 2.892407,0.755218 3.927581,1.262113 v 13.486678 c -0.791599,-0.59075 -1.826782,-1.130216 -3.10553,-1.618409 -1.217855,-0.492868 -2.618391,-0.678521 -4.201598,-0.55696 -2.070357,0.158964 -3.866687,0.752956 -5.389001,1.781978 -1.461429,1.024357 -2.587948,2.479068 -3.379547,4.364131 -0.791608,1.885064 -1.187412,4.228387 -1.187412,7.029971 0,4.104643 0.82205,7.071136 2.466151,8.899491 1.704994,1.823676 4.049369,2.620978 7.033111,2.391884 1.096077,-0.08416 2.100808,-0.291612 3.014195,-0.622357 0.913386,-0.395895 1.613658,-0.742845 2.100799,-1.04087 z M 63.20672,65.182143 47.679077,66.374373 V 35.32592 C 47.134761,27.876418 63.20672,25.643023 63.20672,34.241633 Z"
       id="path3"
       style="font-weight:bold;font-size:85.2338px;font-family:Comfortaa;-inkscape-font-specification:'Comfortaa Bold';fill:#f9f9f9;fill-opacity:1;stroke-width:0.777826" />
    <path
       d="M 94.005171,53.378393 V 65.301404 L 75.189315,66.746108 V 54.823097 Z m -5.663027,12.357825 0.456699,-9.221647 q 8.037841,-0.617155 13.335507,0.83295 5.29767,1.450094 7.9465,4.764982 2.74017,3.307865 2.74017,8.487537 0,9.577494 -6.75909,14.787485 -6.759097,5.209992 -19.272551,6.17079 -2.100798,0.161302 -5.023646,0.190258 -2.922855,0.02897 -5.937044,-0.325978 -3.014188,-0.257211 -5.480344,-1.04516 -5.023652,-1.666594 -5.023652,-6.748528 V 37.989191 q 0,-2.052322 1.096067,-3.211507 1.096067,-1.25691 2.831511,-2.074272 3.10553,-1.411199 7.763826,-2.257516 4.749636,-0.951059 9.590599,-1.322755 11.600071,-0.890667 17.902464,2.925532 6.39374,3.711458 6.39374,12.409389 0,4.886474 -2.83151,8.426686 -2.74018,3.435476 -7.85516,5.489613 -5.114993,1.956402 -12.148103,2.496413 l -0.548033,-6.994449 q 3.92758,-0.301565 5.663027,-1.998481 1.826782,-1.703939 1.826782,-4.733558 0,-2.638694 -2.100798,-4.04107 -2.009464,-1.409387 -6.119726,-1.093797 -1.370083,0.105197 -3.196864,0.343176 -1.735448,0.230965 -2.74018,0.503582 v 35.378108 q 1.278748,0.29273 3.288213,0.333903 2.100798,-0.06359 3.836245,-0.196835 3.653563,-0.280525 6.028378,-2.026543 2.466148,-1.850757 2.466148,-5.27129 0,-3.22507 -2.100798,-4.431984 -2.009464,-1.213925 -6.028377,-0.905348 z"
       id="path2"
       style="font-weight:bold;font-size:85.2338px;font-family:Comfortaa;-inkscape-font-specification:'Comfortaa Bold';fill:#000000;fill-opacity:1;stroke-width:0.777826" />
    <path
       d="M 94.005171,49.378393 V 61.301404 L 75.189315,62.746108 V 50.823097 Z m -5.663027,12.357825 0.456699,-9.221647 q 8.037841,-0.617155 13.335507,0.83295 5.29767,1.450094 7.9465,4.764982 2.74017,3.307865 2.74017,8.487537 0,9.577494 -6.75909,14.787485 -6.759097,5.209992 -19.272551,6.17079 -2.100798,0.161302 -5.023646,0.190258 -2.922855,0.02897 -5.937044,-0.325978 -3.014188,-0.257211 -5.480344,-1.04516 -5.023652,-1.666594 -5.023652,-6.748528 V 33.989191 q 0,-2.052322 1.096067,-3.211507 1.096067,-1.25691 2.831511,-2.074272 3.10553,-1.411199 7.763826,-2.257516 4.749636,-0.951059 9.590599,-1.322755 11.600071,-0.890667 17.902464,2.925532 6.39374,3.711458 6.39374,12.409389 0,4.886474 -2.83151,8.426686 -2.74018,3.435476 -7.85516,5.489613 -5.114993,1.956402 -12.148103,2.496413 l -0.548033,-6.994449 q 3.92758,-0.301565 5.663027,-1.998481 1.826782,-1.703939 1.826782,-4.733558 0,-2.638694 -2.100798,-4.04107 -2.009464,-1.409387 -6.119726,-1.093797 -1.370083,0.105197 -3.196864,0.343176 -1.735448,0.230965 -2.74018,0.503582 v 35.378108 q 1.278748,0.29273 3.288213,0.333903 2.100798,-0.06359 3.836245,-0.196835 3.653563,-0.280525 6.028378,-2.026543 2.466148,-1.850757 2.466148,-5.27129 0,-3.22507 -2.100798,-4.431984 -2.009464,-1.213925 -6.028377,-0.905348 z"
       id="path4"
       style="font-weight:bold;font-size:85.2338px;font-family:Comfortaa;-inkscape-font-specification:'Comfortaa Bold';fill:#f9f9f9;fill-opacity:1;stroke-width:0.777826" />
  </g>
</svg>
