<?xml version="1.0" encoding="UTF-8" standalone="no"?>
<!-- Created with Inkscape (http://www.inkscape.org/) -->

<svg
   width="128"
   height="128"
   viewBox="0 0 128 128"
   version="1.1"
   id="svg1"
   xmlns="http://www.w3.org/2000/svg"
   xmlns:svg="http://www.w3.org/2000/svg">
  <defs
     id="defs1" />
  <g
     id="layer1">
    <g
       aria-label="dB"
       id="text1"
       style="font-weight:bold;font-size:85.2338px;font-family:Comfortaa;-inkscape-font-specification:'Comfortaa Bold';fill:#1a1a1a;stroke-width:7.10282">
      <circle
         style="fill:#7240ab;stroke:none;stroke-width:9.0117;fill-opacity:1"
         id="path3"
         cx="64"
         cy="64"
         r="64" />
      <path
         d="m 39.229258,99.863346 c -3.946393,0 -7.513325,-0.910698 -10.700797,-2.732104 -3.136878,-1.872018 -5.641318,-4.401759 -7.513324,-7.589227 -1.821413,-3.187472 -2.73212,-6.779699 -2.73212,-10.776687 0,-3.996987 0.834815,-7.56392 2.504443,-10.700797 1.720223,-3.187472 4.047583,-5.691914 6.98208,-7.513327 2.934498,-1.872005 6.248457,-2.808009 9.941874,-2.808009 6.957888,0 10.754515,1.212505 14.724138,4.88591 l -0.07695,-22.949537 v -4.657261 c 0,-1.163679 0.354164,-2.099684 1.062491,-2.808009 0.758921,-0.708327 1.694924,-1.062491 2.808009,-1.062491 1.16368,0 2.099684,0.354164 2.808011,1.062491 0.708326,0.708325 1.06249,1.64433 1.06249,2.808009 v 8.901245 34.841776 c 0,3.996988 -0.936005,7.589215 -2.80801,10.776687 -1.821412,3.187478 -4.300557,5.717209 -7.437434,7.589227 -3.136875,1.821406 -6.678513,2.732104 -10.624903,2.732104 z m 0,-6.830284 c 2.580334,0 4.882398,-0.607138 6.906189,-1.821406 2.02379,-1.264882 3.617525,-2.985103 4.781206,-5.16068 1.163682,-2.175576 1.745521,-4.604124 1.745521,-7.285648 0,-2.73212 -0.581839,-5.160668 -1.745521,-7.285649 -1.163681,-2.124982 -2.757416,-3.794608 -4.781206,-5.008884 -2.023791,-1.264869 -4.325855,-1.897304 -6.906189,-1.897304 -2.529738,0 -4.831802,0.632435 -6.906188,1.897304 -2.023792,1.214276 -3.642824,2.883902 -4.857099,5.008884 -1.163681,2.124981 -1.745518,4.553529 -1.745518,7.285649 0,2.681524 0.581837,5.110072 1.745518,7.285648 1.214275,2.175577 2.833307,3.895798 4.857099,5.16068 2.074386,1.214268 4.37645,1.821406 6.906188,1.821406 z"
         id="path1"
         style="fill:#f9f9f9;stroke:#52009b;stroke-width:3.22993;stroke-linecap:round;stroke-linejoin:miter;stroke-dasharray:none;stroke-opacity:1;paint-order:stroke fill markers" />
      <path
         d="m 71.766393,90.602693 q -1.669628,0 -2.808011,-1.138384 Q 67.82,88.325924 67.82,86.656294 V 35.277291 q 0,-1.74552 1.138382,-2.80801 1.138383,-1.138383 2.808011,-1.138383 h 18.13823 q 5.160669,0 9.031171,2.049088 3.946386,1.973197 6.147276,5.540129 2.27676,3.566932 2.27676,8.196355 0,3.718717 -2.04908,6.754403 -1.97322,2.959796 -5.464258,4.705315 5.008888,1.214276 8.044588,4.781209 3.03568,3.566931 3.03568,9.334737 0,5.23656 -2.50445,9.258846 -2.42855,4.022291 -6.83029,6.374944 -4.401753,2.276769 -10.093665,2.276769 z m 3.946392,-7.285655 h 15.78557 q 3.491042,0 6.147268,-1.214274 2.656217,-1.214275 4.174077,-3.566932 1.51783,-2.352658 1.51783,-5.843698 0,-3.263363 -1.51783,-5.388345 -1.51786,-2.124981 -4.174077,-3.187471 -2.656226,-1.138383 -6.147268,-1.138383 h -15.78557 z m 0,-27.624752 h 14.191838 q 4.325857,0 7.057975,-2.124981 2.808009,-2.124981 2.808009,-6.450835 0,-4.325854 -2.808009,-6.374942 -2.732118,-2.124981 -7.057975,-2.124981 H 75.712785 Z"
         id="path2"
         style="fill:#f9f9f9;stroke:#52009b;stroke-width:3.22993;stroke-linecap:round;stroke-linejoin:miter;stroke-dasharray:none;stroke-opacity:1;paint-order:stroke fill markers" />
    </g>
  </g>
</svg>
