<?xml version="1.0" encoding="UTF-8" standalone="no"?>
<!-- Created with Inkscape (http://www.inkscape.org/) -->

<svg
   width="128"
   height="128"
   viewBox="0 0 128 128"
   version="1.1"
   id="svg1"
   xmlns="http://www.w3.org/2000/svg"
   xmlns:svg="http://www.w3.org/2000/svg">
  <defs
     id="defs1" />
  <path
     d="M 41.351624,99.671243 V 61.981289 L 61.87955,60.40513 v 40.80914 c 0,2.16608 -0.44538,4.06312 -1.33614,5.69109 -0.80978,1.62176 -2.145906,3.11064 -4.008405,4.46666 -2.348361,1.82654 -5.38504,3.48932 -9.110023,4.98835 -3.724997,1.58565 -7.97634,2.5619 -12.754042,2.92874 -7.045096,0.54093 -13.077958,-0.25219 -18.098585,-2.37936 -5.02064,-2.12717 -8.8670989,-5.55751 -11.5393773,-10.29102 -2.6722658,-4.82015 -4.008405,-10.86926 -4.008405,-18.147314 0,-7.624632 1.3766225,-14.012 4.1298802,-19.16208 2.7532577,-5.236723 6.4782411,-9.248411 11.1749641,-12.035049 4.777702,-2.8795 10.081763,-4.543083 15.912183,-4.99075 2.834224,-0.217615 5.304061,-0.104002 7.409484,0.340843 2.105424,0.444858 3.846459,1.004324 5.223082,1.678417 v 17.935218 c -1.052706,-0.785607 -2.429341,-1.503014 -4.12988,-2.152236 -1.619561,-0.655439 -3.482059,-0.902329 -5.587482,-0.740672 -2.753258,0.211398 -5.142103,1.001317 -7.166547,2.369759 -1.943477,1.362238 -3.441575,3.296781 -4.494281,5.803626 -1.052718,2.506847 -1.579077,5.623108 -1.579077,9.348786 0,5.458548 1.093202,9.403529 3.279604,11.834962 2.267382,2.42521 5.385041,3.4855 9.352962,3.18084 1.457615,-0.11192 2.793754,-0.3878 4.008418,-0.82764 1.214664,-0.52648 2.145919,-0.98787 2.793741,-1.384197 z M 61.87955,64.564021 41.230161,66.149505 V 24.859812 C 40.506304,14.953114 61.87955,11.98304 61.87955,23.417876 Z"
     id="path3"
     style="fill:currentColor;" />
  <path
     d="M 102.83678,43.547451 V 59.403232 L 77.814572,61.324467 V 45.468686 Z m -7.530961,16.434017 0.607338,-12.26338 q 10.689103,-0.820722 17.734183,1.107696 7.04509,1.928404 10.56763,6.336698 3.64401,4.398954 3.64401,11.287125 0,12.736602 -8.98856,19.665093 -8.98856,6.928493 -25.629541,8.206208 -2.793741,0.214507 -6.680684,0.253013 -3.886942,0.03852 -7.89536,-0.433501 -4.008405,-0.342051 -7.288021,-1.389903 -6.680684,-2.216314 -6.680684,-8.97451 v -60.69384 q 0,-2.729275 1.457602,-4.270813 1.457602,-1.671498 3.76548,-2.758464 4.12988,-1.87668 10.3247,-3.002151 6.316283,-1.264764 12.754029,-1.759062 15.426319,-1.184451 23.807539,3.89051 8.50269,4.935671 8.50269,16.502589 0,6.498262 -3.76547,11.206203 -3.64402,4.568657 -10.44616,7.300345 -6.80216,2.601716 -16.155122,3.319848 l -0.7288,-9.301547 q 5.223081,-0.401035 7.530962,-2.657675 2.42934,-2.265978 2.42934,-6.294908 0,-3.509059 -2.79374,-5.374004 -2.672282,-1.87427 -8.138301,-1.454583 -1.822003,0.139896 -4.251343,0.456371 -2.307878,0.307148 -3.644017,0.669687 v 47.047473 q 1.700539,0.389286 4.372818,0.44404 2.793741,-0.08456 5.101619,-0.261761 4.858681,-0.373055 8.016824,-2.694992 3.2796,-2.461224 3.2796,-7.010009 0,-4.28885 -2.79374,-5.893861 -2.67228,-1.614335 -8.016821,-1.203975 z"
     id="path4"
     style="fill:currentColor;" />
</svg>
