<?xml version="1.0" encoding="UTF-8" standalone="no"?>
<!-- Created with Inkscape (http://www.inkscape.org/) -->

<svg
   width="128"
   height="128"
   viewBox="0 0 128 128"
   version="1.1"
   id="svg1"
   xmlns="http://www.w3.org/2000/svg"
   xmlns:svg="http://www.w3.org/2000/svg">
  <defs
     id="defs1" />
  <g
     aria-label="dB"
     id="text2">
    <path
       d="M 41.351624,95.76376 V 60.538329 H 61.87955 V 98.67898 c 0,2.02445 -0.44538,3.76548 -1.33614,5.22308 -0.80978,1.4576 -2.145906,2.75324 -4.008405,3.88694 -2.348361,1.53858 -5.38504,2.87472 -9.110023,4.00842 -3.724997,1.21466 -7.97634,1.822 -12.754042,1.822 -7.045096,0 -13.077958,-1.17418 -18.098585,-3.52254 -5.02064,-2.34836 -8.8670989,-5.83042 -11.5393773,-10.44617 -2.6722658,-4.69673 -4.008405,-10.44617 -4.008405,-17.248317 0,-7.126062 1.3766225,-12.996977 4.1298802,-17.612721 C 7.9077106,60.09295 11.632694,56.610891 16.329417,54.343509 21.107119,51.995148 26.41118,50.820967 32.2416,50.820967 c 2.834224,0 5.304061,0.283421 7.409484,0.850264 2.105424,0.566855 3.846459,1.214676 5.223082,1.943477 v 16.762446 c -1.052706,-0.80978 -2.429341,-1.579064 -4.12988,-2.307865 -1.619561,-0.728801 -3.482059,-1.093201 -5.587482,-1.093201 -2.753258,0 -5.142103,0.566842 -7.166547,1.700527 -1.943477,1.133697 -3.441575,2.834237 -4.494281,5.101619 -1.052718,2.267382 -1.579077,5.142101 -1.579077,8.624159 0,5.101617 1.093202,8.867087 3.279604,11.296427 2.267382,2.42934 5.385041,3.64402 9.352962,3.64402 1.457615,0 2.793754,-0.16196 4.008418,-0.48587 1.214664,-0.40489 2.145919,-0.76929 2.793741,-1.09321 z M 61.87955,64.425272 H 41.230161 V 25.835486 C 40.506304,16.524637 61.87955,15.282529 61.87955,25.969648 Z"
       id="path3"
       style="fill:currentColor;" />
    <path
       d="M 102.83678,47.722075 V 62.541056 H 77.814572 V 47.722075 Z m -7.530961,14.818981 0.607338,-11.417902 q 10.689103,0 17.734183,2.307878 7.04509,2.307866 10.56763,6.680684 3.64401,4.372805 3.64401,10.810563 0,11.903764 -8.98856,17.734181 -8.98856,5.83042 -25.629541,5.83042 -2.793741,0 -6.680684,-0.24294 -3.886942,-0.24293 -7.89536,-0.97173 Q 74.65643,92.66488 71.376814,91.4502 64.69613,88.8994 64.69613,82.583118 V 25.85801 q 0,-2.550809 1.457602,-3.886949 1.457602,-1.457601 3.76548,-2.307877 4.12988,-1.457602 10.3247,-2.064936 6.316283,-0.728802 12.754029,-0.728802 15.426319,0 23.807539,5.344553 8.50269,5.223088 8.50269,16.033652 0,6.073345 -3.76547,10.203225 -3.64402,4.008418 -10.44616,6.073358 -6.80216,1.943465 -16.155122,1.943465 l -0.7288,-8.745624 q 5.223081,0 7.530962,-1.943465 2.42934,-1.943477 2.42934,-5.708957 0,-3.279604 -2.79374,-5.223082 -2.672282,-1.943477 -8.138301,-1.943477 -1.822003,0 -4.251343,0.12145 -2.307878,0.12145 -3.644017,0.3644 v 43.971068 q 1.700539,0.485863 4.372818,0.728801 2.793741,0.12145 5.101619,0.12145 4.858681,0 8.016824,-1.943477 3.2796,-2.06494 3.2796,-6.316283 0,-4.008405 -2.79374,-5.708945 -2.67228,-1.700539 -8.016821,-1.700539 z"
       id="path4"
       style="fill:currentColor;" />
  </g>
</svg>
