<?xml version="1.0" encoding="UTF-8" standalone="no"?>
<!-- Created with Inkscape (http://www.inkscape.org/) -->

<svg
   width="128"
   height="128"
   viewBox="0 0 128 128"
   version="1.1"
   id="svg1"
   xmlns="http://www.w3.org/2000/svg"
   xmlns:svg="http://www.w3.org/2000/svg">
  <defs
     id="defs1" />
  <g
     id="layer1">
    <g
       aria-label="dB"
       id="text1"
       style="fill:currentColor;">
      <path
         d="m 31.128449,112.14321 c -5.586698,0 -10.636213,-1.28924 -15.148546,-3.86771 C 11.539194,105.62539 7.993791,102.04418 5.3436905,97.531845 2.7652151,93.019511 1.4759767,87.934186 1.4759767,82.275865 c 0,-5.658322 1.1818016,-10.707838 3.5454049,-15.148546 2.435227,-4.512334 5.7299454,-8.057739 9.8841564,-10.636214 4.154212,-2.650099 8.845606,-3.97515 14.074181,-3.97515 9.849908,0 15.224592,1.716479 20.844173,6.916721 L 49.714964,26.944245 v -6.593034 c 0,-1.64736 0.50137,-2.972411 1.504111,-3.97515 1.074363,-1.00274 2.399414,-1.504111 3.975149,-1.504111 1.64736,0 2.97241,0.501371 3.97515,1.504111 1.00274,1.002739 1.504111,2.32779 1.504111,3.97515 v 12.601016 49.323638 c 0,5.658321 -1.325051,10.743646 -3.975149,15.25598 -2.578476,4.512335 -6.088069,8.093545 -10.528778,10.743655 -4.440708,2.57847 -9.454412,3.86771 -15.041109,3.86771 z m 0,-9.66928 c 3.652841,0 6.911749,-0.85949 9.776722,-2.57847 2.864972,-1.79062 5.121138,-4.225845 6.768498,-7.305692 1.647361,-3.079846 2.471041,-6.517813 2.471041,-10.313903 0,-3.867715 -0.82368,-7.305682 -2.471041,-10.313904 -1.64736,-3.008222 -3.903526,-5.371824 -6.768498,-7.090809 -2.864973,-1.790607 -6.123881,-2.685912 -9.776722,-2.685912 -3.581216,0 -6.840124,0.895305 -9.776721,2.685912 -2.864974,1.718985 -5.156951,4.082587 -6.875936,7.090809 -1.647359,3.008222 -2.471038,6.446189 -2.471038,10.313904 0,3.79609 0.823679,7.234057 2.471038,10.313903 1.718985,3.079847 4.010962,5.515072 6.875936,7.305692 2.936597,1.71898 6.195505,2.57847 9.776721,2.57847 z"
         id="path1"
         style="stroke-width:8.95305" />
      <path
         d="m 72.296564,104.326 q -2.363602,0 -3.975149,-1.61155 -1.611548,-1.61155 -1.611548,-3.975155 V 26.004787 q 0,-2.471039 1.611548,-3.97515 1.611547,-1.611548 3.975149,-1.611548 h 25.677322 q 7.305684,0 12.784944,2.900786 5.5867,2.793349 8.70237,7.842864 3.22308,5.049515 3.22308,11.603141 0,5.264389 -2.90077,9.561848 -2.79336,4.190024 -7.73544,6.661062 7.09081,1.718985 11.38828,6.7685 4.29745,5.049516 4.29745,13.21469 0,7.413117 -3.54541,13.107252 -3.43797,5.694143 -9.66928,9.024668 -6.23132,3.2231 -14.28906,3.2231 z m 5.586698,-10.313912 h 22.346788 q 4.94208,0 8.70236,-1.718983 3.76027,-1.718985 5.90901,-5.049515 2.14873,-3.330532 2.14873,-8.27261 0,-4.61977 -2.14873,-7.627992 -2.14874,-3.008222 -5.90901,-4.512333 -3.76028,-1.611547 -8.70236,-1.611547 H 77.883262 Z m 0,-39.106884 h 20.090624 q 6.123884,0 9.991594,-3.008222 3.97515,-3.008222 3.97515,-9.132102 0,-6.123881 -3.97515,-9.024665 -3.86771,-3.008222 -9.991594,-3.008222 H 77.883262 Z"
         id="path2"
         style="stroke-width:8.95305" />
    </g>
  </g>
</svg>
